PathFileType	4	(X/Y/Z)	s10c0102.trc
DataRate	CameraRate	NumFrames	NumMarkers	Units	OrigDataRate	OrigDataStartFrame	OrigNumFrames
200	200	4	50	mm	200	1750	2000
Frame#	Time	racr			lacr			c7			jug			rlel			rdr			llel			ldr			s2			lic			ric			lasi			rasi			rpsi			lpsi			rgt			lgt			rth1			rth2			rth3			rth4			rlfc			rmfc			rsh1			rsh2			rsh3			rsh4			rlmal			rmmal			rcal			rtoe			rmt5			lth1			lth2			lth4			lth3			llfc			lmfc			llmal			lmmal			lcal			lmt5			lsh1			lsh2			lsh3			lsh4			ltoe			SBIKE			LBIKE			RBIKE			
		X1	Y1	Z1	X2	Y2	Z2	X3	Y3	Z3	X4	Y4	Z4	X5	Y5	Z5	X6	Y6	Z6	X7	Y7	Z7	X8	Y8	Z8	X9	Y9	Z9	X10	Y10	Z10	X11	Y11	Z11	X12	Y12	Z12	X13	Y13	Z13	X14	Y14	Z14	X15	Y15	Z15	X16	Y16	Z16	X17	Y17	Z17	X18	Y18	Z18	X19	Y19	Z19	X20	Y20	Z20	X21	Y21	Z21	X22	Y22	Z22	X23	Y23	Z23	X24	Y24	Z24	X25	Y25	Z25	X26	Y26	Z26	X27	Y27	Z27	X28	Y28	Z28	X29	Y29	Z29	X30	Y30	Z30	X31	Y31	Z31	X32	Y32	Z32	X33	Y33	Z33	X34	Y34	Z34	X35	Y35	Z35	X36	Y36	Z36	X37	Y37	Z37	X38	Y38	Z38	X39	Y39	Z39	X40	Y40	Z40	X41	Y41	Z41	X42	Y42	Z42	X43	Y43	Z43	X44	Y44	Z44	X45	Y45	Z45	X46	Y46	Z46	X47	Y47	Z47	X48	Y48	Z48	X49	Y49	Z49	X50	Y50	Z50	
1750	8.7500	397.109493	1271.590488	-1.857255	456.580523	1281.428839	-310.392422	381.088962	1330.448830	-173.417134	372.504303	1184.994984	-176.448784	471.134756	1014.502029	51.763067	635.420397	878.448512	-47.274704	485.885706	1040.119326	-464.598601	639.643870	886.712935	-414.305512	-119.905126	1090.712571	-226.632038	52.536990	1113.318015	-374.482215	38.376835	1137.669730	-78.399143	81.430222	1031.371861	-337.935703	55.864814	1056.611865	-90.736872	-91.234705	1152.245046	-175.028034	-75.958545	1155.839559	-287.524586	-36.902681	1031.032580	-23.275896	-49.109136	969.803506	-409.481742	99.038397	978.285574	-15.783550	182.297338	993.680062	-42.221306	262.048488	965.547818	-49.161763	181.097767	1028.638133	-55.782905	370.999458	963.027012	-83.172170	356.593400	942.691129	-210.079245	311.949765	870.071298	-49.381693	292.885572	784.119169	-59.221179	236.010034	719.496587	-57.885995	320.828322	771.655306	-82.374899	182.625830	616.866809	-65.363517	211.507108	620.741162	-144.569139	129.589768	625.697961	-111.506438	308.519669	459.832302	-105.639007	228.874602	492.887417	-45.396576	8.405020	860.315159	-427.618025	62.873107	793.378559	-419.022523	95.960626	809.020883	-411.534310	75.900690	705.661860	-410.040659	119.985483	607.598342	-395.304520	130.347881	599.620087	-278.161949	-5.014698	251.927718	-378.176667	21.083867	249.786057	-302.820344	-53.605833	223.961456	-330.650223	105.667300	149.916541	-401.426524	51.873707	503.865314	-417.543631	58.640479	418.114081	-405.736647	18.366376	338.903957	-394.425196	91.450397	414.534798	-386.511482	193.431305	170.597834	-348.791739	-218.267686	833.215904	-214.400814	-104.036261	80.389800	-418.306572	-104.044552	80.469408	-18.331408	
1751	8.7550	396.813865	1271.442419	-0.299858	457.627317	1280.732732	-308.700093	381.990699	1330.147630	-172.577696	372.748813	1184.724743	-175.274119	470.250622	1013.998795	52.074763	635.327848	878.626419	-47.219796	486.164059	1040.374856	-464.236604	639.629037	886.738066	-414.213234	-120.383025	1092.753500	-225.842518	52.677960	1114.340540	-374.383765	37.991873	1139.678110	-79.113267	80.843284	1032.345833	-338.100143	55.333433	1058.496837	-90.593007	-91.410444	1154.867148	-174.706794	-75.876641	1157.474588	-287.518614	-36.280626	1033.162796	-22.624909	-49.823565	971.108277	-409.571603	98.871552	980.072839	-16.025620	182.175107	994.381294	-43.116594	261.542534	965.402106	-50.452595	181.198919	1029.340798	-57.174763	370.261555	960.633396	-84.320217	354.348147	940.393838	-211.087597	310.363095	868.058255	-51.866350	293.304775	781.595591	-59.771959	237.612989	715.929277	-57.862901	321.819462	769.321140	-82.277037	186.235190	612.156405	-65.096009	214.818065	616.653278	-144.177840	132.475844	618.237923	-111.141837	318.504027	460.900345	-105.856568	237.559905	490.066228	-45.209288	8.660397	861.282524	-427.689703	63.790900	794.892378	-419.150696	96.787554	810.829774	-411.964911	77.741459	707.320883	-409.896076	123.081453	609.720175	-395.808415	133.657533	601.924865	-278.814389	-11.760048	258.144508	-377.813995	13.843140	255.560708	-302.355467	-61.380526	231.520496	-330.439864	96.046833	153.681953	-401.231722	52.309474	507.941823	-417.922860	56.795481	422.292506	-405.691710	14.393963	344.023825	-394.319658	89.322350	417.851364	-386.256438	184.331351	171.828297	-348.603775	-218.442002	832.971065	-214.351008	-104.029953	80.403004	-418.331551	-104.044217	80.475843	-18.330199	
1752	8.7600	396.566462	1271.181654	0.938250	458.534597	1279.932867	-306.695691	382.761542	1329.771603	-171.815531	372.991728	1184.376197	-174.273662	469.448027	1013.439068	52.297147	635.271458	878.804841	-47.175556	486.461121	1040.640107	-463.888655	639.633457	886.753733	-414.161026	-120.120355	1095.046615	-225.834904	52.697145	1115.605041	-374.469684	37.600298	1141.653975	-79.802570	80.173707	1033.554082	-338.412401	55.020987	1060.005146	-90.862897	-91.325747	1157.247932	-174.458213	-75.914764	1159.285472	-287.411189	-35.658313	1035.084795	-22.157080	-50.586878	972.516419	-409.532982	98.431368	981.420664	-16.555801	181.784949	994.462146	-43.784348	260.721944	964.151198	-51.384076	181.184105	1029.234872	-58.604769	369.559796	957.281929	-85.768464	352.280483	936.735677	-211.716250	308.962480	864.898131	-53.860088	293.380085	777.552096	-60.640130	239.244966	711.154881	-57.720733	322.293018	765.532585	-82.757533	189.436045	606.378376	-64.711214	217.710718	611.392784	-143.592972	134.939128	609.884328	-110.369319	328.031943	461.456710	-105.895581	245.896094	486.693109	-44.920815	9.034926	862.195695	-427.896029	65.017683	796.572266	-419.261821	97.771784	812.980689	-412.420520	80.069085	709.174866	-409.688581	126.955342	612.069190	-396.095234	137.675387	604.267081	-279.089113	-18.078161	265.151250	-377.649327	8.219324	261.180927	-302.322952	-68.584338	239.711233	-330.122962	86.800942	158.001054	-401.083133	53.473199	512.659196	-418.322808	55.533508	426.828275	-405.525588	11.059013	349.782817	-394.274485	87.848414	421.647215	-385.882221	175.503161	173.493020	-348.407630	-218.463643	833.000429	-214.329520	-104.069865	80.342172	-418.261867	-104.050244	80.484030	-18.342285	
1753	8.7650	396.513610	1270.908014	2.080063	459.402769	1279.213456	-305.232738	383.532738	1329.429115	-171.101663	373.260648	1184.062287	-173.360988	468.687380	1012.810733	52.479266	635.149759	879.030455	-47.030567	486.784948	1040.834235	-463.526802	639.639833	886.739558	-414.126730	-120.447672	1097.073456	-225.255675	52.578519	1116.901232	-374.532288	37.183866	1143.499556	-80.542057	79.267620	1035.024536	-338.686275	54.617364	1061.120484	-91.335810	-91.022030	1159.625654	-174.446848	-75.972344	1161.160853	-287.211663	-35.217017	1036.747089	-21.825961	-51.431870	974.054869	-409.572446	97.946160	982.331536	-17.222585	181.330215	993.878156	-44.992724	259.698921	962.493878	-52.231318	181.087841	1028.545941	-60.033920	368.672605	953.110048	-87.035215	350.271352	931.744560	-212.036675	307.708610	860.244378	-55.418621	293.883043	772.231156	-60.489899	240.651922	705.301211	-57.225279	322.963218	760.742280	-82.686430	192.494694	599.672054	-63.920823	220.344236	605.002269	-142.876914	137.105312	600.337656	-109.234415	337.019736	461.322011	-105.747932	253.849900	482.313650	-44.610494	9.450884	863.288608	-428.085152	66.437067	798.445130	-419.320273	98.972673	815.430514	-412.888794	83.121591	711.506825	-409.750473	131.621658	614.934867	-396.245808	142.340978	607.268098	-279.387622	-23.847489	272.800047	-377.544470	1.807675	268.492382	-301.916777	-75.063156	248.239631	-329.169235	77.922331	162.820428	-400.856711	55.284997	517.703487	-418.621356	54.925520	431.924884	-405.421637	8.318356	356.112597	-394.262667	86.838347	425.920783	-385.529356	166.872850	175.480644	-348.203754	-218.487450	832.998295	-214.367820	-104.030517	80.449904	-418.330929	-104.058570	80.490989	-18.324964	
